<svg width="20" height="20" viewBox="0 0 20 20" fill="none" xmlns="http://www.w3.org/2000/svg">
<g clip-path="url(#clip0_435_4932)">
<path fill-rule="evenodd" clip-rule="evenodd" d="M12.5026 3.33331C13.1229 3.33331 13.7771 3.54977 14.3778 3.78885L14.817 3.96938C15.8669 4.40943 16.457 5.33228 16.9146 6.34675C17.6569 7.9923 18.1723 10.1865 18.3508 11.8546C18.4356 12.6471 18.457 13.4434 18.304 13.9789C18.1404 14.5514 17.5813 14.9565 17.0389 15.2752L16.771 15.4278L16.4923 15.5821C16.3489 15.6623 16.2019 15.7417 16.0551 15.8192L15.6198 16.0443L15.0227 16.342L14.542 16.5786C14.1304 16.7845 13.6298 16.6176 13.424 16.206C13.2181 15.7943 13.385 15.2938 13.7966 15.088L14.4558 14.7631L13.972 14.2559C12.8138 14.7314 11.4491 15 10.0001 15C8.55104 15 7.18637 14.7314 6.02819 14.2559L5.54517 14.7623L6.2061 15.088C6.61774 15.2938 6.7846 15.7943 6.57877 16.206C6.37295 16.6176 5.87239 16.7845 5.46074 16.5786L5.00772 16.3539C4.67213 16.188 4.33659 16.0221 4.00483 15.8487L3.23175 15.4278L2.96385 15.2752C2.42146 14.9565 1.86235 14.5514 1.6988 13.9789C1.54582 13.4434 1.56713 12.6471 1.65193 11.8546C1.83042 10.1865 2.34584 7.9923 3.0881 6.34675C3.5457 5.33229 4.13584 4.40943 5.18578 3.96938C5.88257 3.67735 6.72647 3.33331 7.50007 3.33331C8.00257 3.33331 8.39729 3.796 8.32443 4.28937C8.86387 4.20894 9.42496 4.16665 10.0001 4.16665C10.5762 4.16665 11.1381 4.20907 11.6784 4.28976C11.6053 3.79629 12 3.33331 12.5026 3.33331ZM7.29176 8.74998C6.48634 8.74998 5.83342 9.4029 5.83342 10.2083C5.83342 11.0137 6.48634 11.6666 7.29176 11.6666C8.09717 11.6666 8.75012 11.0137 8.75012 10.2083C8.75012 9.4029 8.09717 8.74998 7.29176 8.74998ZM12.7085 8.74998C11.903 8.74998 11.2501 9.4029 11.2501 10.2083C11.2501 11.0137 11.903 11.6666 12.7085 11.6666C13.5139 11.6666 14.1668 11.0137 14.1668 10.2083C14.1668 9.4029 13.5139 8.74998 12.7085 8.74998Z" fill="white"/>
</g>
<defs>
<clipPath id="clip0_435_4932">
<rect width="20" height="20" fill="white"/>
</clipPath>
</defs>
</svg>
