<svg width="811" height="568" viewBox="0 0 811 568" fill="none" xmlns="http://www.w3.org/2000/svg">
    <path d="M194.613 15.0127L194.441 75.1329L170.219 89.1588L170.391 29.0385L194.613 15.0127Z" fill="#3E4A8B" />
    <path d="M194.613 15.0127L170.391 29.0385L146.01 15.0127L170.232 1L194.613 15.0127Z" fill="#1969FF" stroke="#0A0A31"
        stroke-width="0.5" stroke-miterlimit="10" />
    <path d="M170.391 29.0385L170.219 89.1588L145.838 75.1329L146.01 15.0127L170.391 29.0385Z" fill="#1F1F2B" />
    <path d="M146.168 43.0644L145.996 103.185L121.615 89.1588L121.787 29.0386L146.168 43.0644Z" fill="#1F1F2B" />
    <path d="M170.39 29.0386L170.218 89.1588L145.996 103.185L146.168 43.0644L170.39 29.0386Z" fill="#1D3B73" />
    <path d="M170.391 29.0385L146.168 43.0644L121.787 29.0385L146.009 15.0127L170.391 29.0385Z" fill="#1969FF"
        stroke="#0A0A31" stroke-width="0.5" stroke-miterlimit="10" />
    <path d="M219.006 29.0386L218.834 89.1588L194.611 103.185L194.783 43.0644L219.006 29.0386Z" fill="#3E4A8B" />
    <path d="M194.783 43.0644L194.611 103.185L170.217 89.1588L170.389 29.0386L194.783 43.0644Z" fill="#1F1F2B" />
    <path d="M219.005 29.0385L194.783 43.0644L170.389 29.0385L194.611 15.0127L219.005 29.0385Z" fill="#1969FF"
        stroke="#0A0A31" stroke-width="0.5" stroke-miterlimit="10" />
    <path d="M243.373 43.0645L243.201 103.185L218.992 117.197L219.164 57.0903L243.373 43.0645Z" fill="#3E4A8B" />
    <path d="M243.373 43.0644L219.164 57.0903L194.783 43.0644L219.006 29.0386L243.373 43.0644Z" fill="#1969FF"
        stroke="#0A0A31" stroke-width="0.5" stroke-miterlimit="10" />
    <path d="M219.164 57.0903L218.992 117.197L194.611 103.185L194.783 43.0645L219.164 57.0903Z" fill="#1F1F2B" />
    <path d="M243.532 71.103L243.36 131.223L218.992 117.197L219.164 57.0903L243.532 71.103Z" fill="#1F1F2B" />
    <path d="M267.754 57.0903L267.582 117.197L243.359 131.223L243.531 71.103L267.754 57.0903Z" fill="#3E4A8B" />
    <path d="M267.754 57.0903L243.532 71.103L219.164 57.0903L243.373 43.0645L267.754 57.0903Z" fill="#1969FF"
        stroke="#0A0A31" stroke-width="0.5" stroke-miterlimit="10" />
    <path d="M146.168 43.0645L145.996 103.185L121.773 117.211L121.945 57.0903L146.168 43.0645Z" fill="#1D3B73" />
    <path d="M121.945 57.0903L121.774 117.211L97.3926 103.185L97.5645 43.0645L121.945 57.0903Z" fill="#1F1F2B" />
    <path d="M146.168 43.0644L121.945 57.0903L97.5645 43.0644L121.787 29.0386L146.168 43.0644Z" fill="#1969FF"
        stroke="#0A0A31" stroke-width="0.5" stroke-miterlimit="10" />
    <path d="M121.945 57.0903L97.7228 71.103L73.3418 57.0903L97.5642 43.0645L121.945 57.0903Z" fill="#1969FF"
        stroke="#0A0A31" stroke-width="0.5" stroke-miterlimit="10" />
    <path d="M121.945 57.0903L121.773 117.211L97.5508 131.223L97.7227 71.103L121.945 57.0903Z" fill="#3E4A8B" />
    <path d="M97.7228 71.103L97.551 131.223L73.1699 117.211L73.3418 57.0903L97.7228 71.103Z" fill="#1F1F2B" />
    <path d="M146.326 71.1162L122.104 85.1289L97.7227 71.103L121.945 57.0903L146.326 71.1162Z" fill="#1969FF"
        stroke="#0A0A31" stroke-width="0.5" stroke-miterlimit="10" />
    <path d="M122.104 85.1289L121.932 145.249L97.5508 131.223L97.7227 71.103L122.104 85.1289Z" fill="#1F1F2B" />
    <path d="M146.326 71.1162L146.154 131.223L121.932 145.249L122.104 85.1289L146.326 71.1162Z" fill="#3E4A8B" />
    <path d="M97.7226 71.103L73.5002 85.1289L49.1191 71.103L73.3415 57.0903L97.7226 71.103Z" fill="#1969FF"
        stroke="#0A0A31" stroke-width="0.5" stroke-miterlimit="10" />
    <path d="M97.7224 71.103L97.5505 131.223L73.3281 145.249L73.5 85.1289L97.7224 71.103Z" fill="#1D3B73" />
    <path d="M73.5002 85.1289L73.3283 145.249L48.9473 131.223L49.1192 71.103L73.5002 85.1289Z" fill="#1F1F2B" />
    <path d="M170.707 85.1289L170.535 145.249L146.312 159.275L146.484 99.1548L170.707 85.1289Z" fill="#1D3B73" />
    <path d="M146.485 99.1548L146.313 159.275L121.932 145.249L122.104 85.1289L146.485 99.1548Z" fill="#1F1F2B" />
    <path d="M170.707 85.1289L146.485 99.1547L122.104 85.1289L146.326 71.1162L170.707 85.1289Z" fill="#1969FF"
        stroke="#0A0A31" stroke-width="0.5" stroke-miterlimit="10" />
    <path d="M73.4993 85.1289L73.3274 145.249L49.0918 159.275L49.2637 99.1548L73.4993 85.1289Z" fill="#1D3B73" />
    <path d="M73.4994 85.1289L49.2638 99.1547L24.8828 85.1289L49.1184 71.103L73.4994 85.1289Z" fill="#1969FF"
        stroke="#0A0A31" stroke-width="0.5" stroke-miterlimit="10" />
    <path d="M49.2639 99.1548L49.092 159.275L24.7109 145.249L24.8828 85.1289L49.2639 99.1548Z" fill="#1F1F2B" />
    <path d="M25.0412 113.181L24.8693 173.301L0.488281 159.275L0.660165 99.1548L25.0412 113.181Z" fill="#1F1F2B" />
    <path d="M49.2634 99.1548L49.0915 159.275L24.8691 173.301L25.041 113.181L49.2634 99.1548Z" fill="#1D3B73" />
    <path d="M49.2636 99.1548L25.0412 113.181L0.660156 99.1548L24.8825 85.1289L49.2636 99.1548Z" fill="#1969FF"
        stroke="#0A0A31" stroke-width="0.5" stroke-miterlimit="10" />
    <path d="M217.539 110.652L217.367 170.772L193.145 184.785L193.316 124.678L217.539 110.652Z" fill="#3E4A8B" />
    <path d="M193.316 124.678L193.144 184.785L168.75 170.772L168.922 110.652L193.316 124.678Z" fill="#1F1F2B" />
    <path d="M217.538 110.652L193.316 124.678L168.922 110.652L193.144 96.6262L217.538 110.652Z" fill="#1969FF"
        stroke="#0A0A31" stroke-width="0.5" stroke-miterlimit="10" />
    <path d="M241.92 124.678L241.748 184.798L217.525 198.811L217.697 138.704L241.92 124.678Z" fill="#3E4A8B" />
    <path d="M217.697 138.704L217.526 198.811L193.145 184.785L193.316 124.678L217.697 138.704Z" fill="#1F1F2B" />
    <path d="M241.92 124.678L217.697 138.704L193.316 124.678L217.539 110.652L241.92 124.678Z" fill="#1969FF"
        stroke="#0A0A31" stroke-width="0.5" stroke-miterlimit="10" />
    <path d="M266.301 138.704L266.129 198.811L241.906 212.837L242.078 152.716L266.301 138.704Z" fill="#3E4A8B" />
    <path d="M242.078 152.716L241.906 212.837L217.525 198.811L217.697 138.704L242.078 152.716Z" fill="#1F1F2B" />
    <path d="M266.301 138.704L242.078 152.716L217.697 138.704L241.92 124.678L266.301 138.704Z" fill="#1969FF"
        stroke="#0A0A31" stroke-width="0.5" stroke-miterlimit="10" />
    <path d="M290.681 152.716L290.509 212.837L266.287 226.862L266.459 166.742L290.681 152.716Z" fill="#3E4A8B" />
    <path d="M266.459 166.742L266.287 226.862L241.906 212.837L242.078 152.716L266.459 166.742Z" fill="#1F1F2B" />
    <path d="M290.682 152.716L266.459 166.742L242.078 152.716L266.301 138.704L290.682 152.716Z" fill="#1969FF"
        stroke="#0A0A31" stroke-width="0.5" stroke-miterlimit="10" />
    <path d="M315.076 166.742L314.904 226.862L290.682 240.888L290.854 180.768L315.076 166.742Z" fill="#1D3B73" />
    <path d="M315.076 166.742L290.853 180.768L266.459 166.742L290.681 152.716L315.076 166.742Z" fill="#1969FF"
        stroke="#0A0A31" stroke-width="0.5" stroke-miterlimit="10" />
    <path d="M290.853 180.768L290.681 240.888L266.287 226.862L266.459 166.742L290.853 180.768Z" fill="#1F1F2B" />
    <path d="M266.631 194.781L266.459 254.901L242.064 240.875L242.236 180.755L266.631 194.781Z" fill="#1F1F2B" />
    <path d="M290.853 180.768L290.681 240.888L266.459 254.901L266.631 194.781L290.853 180.768Z" fill="#1D3B73" />
    <path d="M290.853 180.768L266.631 194.781L242.236 180.755L266.459 166.742L290.853 180.768Z" fill="#1969FF"
        stroke="#0A0A31" stroke-width="0.5" stroke-miterlimit="10" />
    <path d="M217.697 138.704L217.525 198.811L193.303 212.837L193.475 152.716L217.697 138.704Z" fill="#1D3B73" />
    <path d="M217.697 138.704L193.475 152.716L169.094 138.69L193.316 124.678L217.697 138.704Z" fill="#1969FF"
        stroke="#0A0A31" stroke-width="0.5" stroke-miterlimit="10" />
    <path d="M193.475 152.716L193.303 212.836L168.922 198.811L169.094 138.69L193.475 152.716Z" fill="#1F1F2B" />
    <path d="M169.252 166.742L169.08 226.862L144.686 212.837L144.857 152.716L169.252 166.742Z" fill="#1F1F2B" />
    <path d="M193.474 152.716L193.302 212.837L169.08 226.862L169.252 166.742L193.474 152.716Z" fill="#1D3B73" />
    <path d="M193.474 152.716L169.252 166.742L144.857 152.716L169.093 138.69L193.474 152.716Z" fill="#1969FF"
        stroke="#0A0A31" stroke-width="0.5" stroke-miterlimit="10" />
    <path d="M169.253 166.742L169.081 226.862L144.846 240.888L145.018 180.768L169.253 166.742Z" fill="#3E4A8B" />
    <path d="M145.018 180.768L144.846 240.888L120.465 226.862L120.637 166.742L145.018 180.768Z" fill="#1F1F2B" />
    <path d="M169.253 166.742L145.018 180.768L120.637 166.742L144.859 152.716L169.253 166.742Z" fill="#1969FF"
        stroke="#0A0A31" stroke-width="0.5" stroke-miterlimit="10" />
    <path d="M193.634 180.768L193.462 240.888L169.227 254.914L169.398 194.794L193.634 180.768Z" fill="#3E4A8B" />
    <path d="M193.634 180.768L169.399 194.794L145.018 180.768L169.253 166.742L193.634 180.768Z" fill="#1969FF"
        stroke="#0A0A31" stroke-width="0.5" stroke-miterlimit="10" />
    <path d="M169.399 194.794L169.227 254.914L144.846 240.888L145.018 180.768L169.399 194.794Z" fill="#1F1F2B" />
    <path d="M193.779 208.807L193.608 268.927L169.227 254.914L169.398 194.794L193.779 208.807Z" fill="#1F1F2B" />
    <path d="M218.015 194.781L217.843 254.901L193.607 268.927L193.779 208.807L218.015 194.781Z" fill="#3E4A8B" />
    <path d="M218.015 194.781L193.779 208.807L169.398 194.794L193.634 180.768L218.015 194.781Z" fill="#1969FF"
        stroke="#0A0A31" stroke-width="0.5" stroke-miterlimit="10" />
    <path d="M266.63 194.781L266.458 254.901L242.223 268.927L242.395 208.807L266.63 194.781Z" fill="#1D3B73" />
    <path d="M242.395 208.807L242.223 268.927L217.842 254.901L218.014 194.781L242.395 208.807Z" fill="#1F1F2B" />
    <path d="M266.63 194.781L242.395 208.807L218.014 194.781L242.236 180.755L266.63 194.781Z" fill="#1969FF"
        stroke="#0A0A31" stroke-width="0.5" stroke-miterlimit="10" />
    <path d="M242.396 208.807L242.224 268.927L218.002 282.953L218.174 222.832L242.396 208.807Z" fill="#1D3B73" />
    <path d="M218.174 222.832L218.002 282.953L193.607 268.927L193.779 208.807L218.174 222.832Z" fill="#1F1F2B" />
    <path d="M242.396 208.807L218.174 222.832L193.779 208.807L218.015 194.781L242.396 208.807Z" fill="#1969FF"
        stroke="#0A0A31" stroke-width="0.5" stroke-miterlimit="10" />
    <path d="M355.707 191.027L355.535 251.148L331.312 265.173L331.484 205.053L355.707 191.027Z" fill="#3E4A8B" />
    <path d="M331.485 205.053L331.313 265.173L306.932 251.148L307.104 191.027L331.485 205.053Z" fill="#1F1F2B" />
    <path d="M355.707 191.027L331.485 205.053L307.104 191.027L331.326 177.015L355.707 191.027Z" fill="#1969FF"
        stroke="#0A0A31" stroke-width="0.5" stroke-miterlimit="10" />
    <path d="M380.088 205.053L379.916 265.173L355.693 279.199L355.865 219.079L380.088 205.053Z" fill="#3E4A8B" />
    <path d="M355.865 219.079L355.694 279.199L331.312 265.173L331.484 205.053L355.865 219.079Z" fill="#1F1F2B" />
    <path d="M380.088 205.053L355.865 219.079L331.484 205.053L355.707 191.027L380.088 205.053Z" fill="#1969FF"
        stroke="#0A0A31" stroke-width="0.5" stroke-miterlimit="10" />
    <path d="M404.482 219.079L404.31 279.199L380.088 293.225L380.26 233.105L404.482 219.079Z" fill="#3E4A8B" />
    <path d="M380.26 233.105L380.088 293.225L355.693 279.199L355.865 219.079L380.26 233.105Z" fill="#1F1F2B" />
    <path d="M404.482 219.079L380.26 233.105L355.865 219.079L380.088 205.053L404.482 219.079Z" fill="#1969FF"
        stroke="#0A0A31" stroke-width="0.5" stroke-miterlimit="10" />
    <path d="M428.863 233.105L428.691 293.225L404.469 307.238L404.641 247.118L428.863 233.105Z" fill="#1D3B73" />
    <path d="M404.641 247.118L404.469 307.238L380.088 293.225L380.26 233.105L404.641 247.118Z" fill="#1F1F2B" />
    <path d="M428.863 233.105L404.641 247.118L380.26 233.105L404.482 219.079L428.863 233.105Z" fill="#1969FF"
        stroke="#0A0A31" stroke-width="0.5" stroke-miterlimit="10" />
    <path d="M404.64 247.118L404.468 307.238L380.246 321.264L380.418 261.144L404.64 247.118Z" fill="#1D3B73" />
    <path d="M380.418 261.144L380.246 321.264L355.865 307.238L356.037 247.118L380.418 261.144Z" fill="#1F1F2B" />
    <path d="M404.641 247.118L380.418 261.144L356.037 247.118L380.259 233.105L404.641 247.118Z" fill="#1969FF"
        stroke="#0A0A31" stroke-width="0.5" stroke-miterlimit="10" />
    <path d="M380.417 261.143L380.245 321.263L356.01 335.289L356.182 275.169L380.417 261.143Z" fill="#1D3B73" />
    <path d="M356.182 275.169L356.01 335.289L331.643 321.263L331.801 261.143L356.182 275.169Z" fill="#1F1F2B" />
    <path d="M380.417 261.143L356.182 275.169L331.801 261.143L356.036 247.117L380.417 261.143Z" fill="#1969FF"
        stroke="#0A0A31" stroke-width="0.5" stroke-miterlimit="10" />
    <path d="M331.484 205.053L331.312 265.173L307.09 279.199L307.262 219.079L331.484 205.053Z" fill="#1D3B73" />
    <path d="M307.262 219.079L307.09 279.199L282.709 265.173L282.881 205.053L307.262 219.079Z" fill="#1F1F2B" />
    <path d="M331.484 205.053L307.262 219.079L282.881 205.053L307.103 191.027L331.484 205.053Z" fill="#1969FF"
        stroke="#0A0A31" stroke-width="0.5" stroke-miterlimit="10" />
    <path d="M356.183 275.169L356.011 335.29L331.789 349.315L331.961 289.195L356.183 275.169Z" fill="#1D3B73" />
    <path d="M331.961 289.195L331.789 349.315L307.408 335.29L307.58 275.169L331.961 289.195Z" fill="#1F1F2B" />
    <path d="M356.184 275.169L331.961 289.195L307.58 275.169L331.802 261.144L356.184 275.169Z" fill="#1969FF"
        stroke="#0A0A31" stroke-width="0.5" stroke-miterlimit="10" />
    <path d="M307.261 219.079L307.089 279.199L282.854 293.212L283.025 233.105L307.261 219.079Z" fill="#1D3B73" />
    <path d="M307.261 219.079L283.026 233.105L258.645 219.079L282.88 205.053L307.261 219.079Z" fill="#1969FF"
        stroke="#0A0A31" stroke-width="0.5" stroke-miterlimit="10" />
    <path d="M283.026 233.105L282.854 293.212L258.486 279.199L258.645 219.079L283.026 233.105Z" fill="#1F1F2B" />
    <path d="M258.803 247.131L258.631 307.238L234.25 293.225L234.422 233.105L258.803 247.131Z" fill="#1F1F2B" />
    <path d="M283.025 233.105L282.853 293.212L258.631 307.238L258.803 247.131L283.025 233.105Z" fill="#1D3B73" />
    <path d="M283.025 233.105L258.803 247.131L234.422 233.105L258.644 219.079L283.025 233.105Z" fill="#1969FF"
        stroke="#0A0A31" stroke-width="0.5" stroke-miterlimit="10" />
    <path d="M554.113 220.041L553.941 280.161L529.719 294.187L529.891 234.066L554.113 220.041Z" fill="#1D3B73" />
    <path d="M529.891 234.066L529.719 294.187L505.338 280.161L505.51 220.041L529.891 234.066Z" fill="#1F1F2B" />
    <path d="M554.113 220.041L529.891 234.066L505.51 220.041L529.732 206.028L554.113 220.041Z" fill="#1969FF"
        stroke="#0A0A31" stroke-width="0.5" stroke-miterlimit="10" />
    <path d="M505.509 220.041L505.338 280.161L481.115 294.187L481.287 234.066L505.509 220.041Z" fill="#3E4A8B" />
    <path d="M481.287 234.066L481.115 294.187L456.734 280.161L456.906 220.041L481.287 234.066Z" fill="#1F1F2B" />
    <path d="M505.51 220.04L481.287 234.066L456.906 220.04L481.129 206.015L505.51 220.04Z" fill="#1969FF"
        stroke="#0A0A31" stroke-width="0.5" stroke-miterlimit="10" />
    <path d="M529.89 234.066L529.718 294.187L505.496 308.199L505.668 248.092L529.89 234.066Z" fill="#3E4A8B" />
    <path d="M505.668 248.092L505.496 308.199L481.115 294.187L481.287 234.066L505.668 248.092Z" fill="#1F1F2B" />
    <path d="M529.89 234.066L505.668 248.092L481.287 234.066L505.509 220.041L529.89 234.066Z" fill="#1969FF" />
    <path d="M505.668 248.092L505.496 308.199L481.273 322.225L481.445 262.118L505.668 248.092Z" fill="#1D3B73" />
    <path d="M481.446 262.118L481.274 322.225L456.893 308.212L457.064 248.092L481.446 262.118Z" fill="#1F1F2B" />
    <path d="M505.668 248.092L481.445 262.118L457.064 248.092L481.287 234.066L505.668 248.092Z" fill="#1969FF"
        stroke="#0A0A31" stroke-width="0.5" stroke-miterlimit="10" />
    <path d="M554.272 248.092L554.113 308.212L529.891 322.225L530.063 262.118L554.272 248.092Z" fill="#1D3B73" />
    <path d="M530.062 262.118L529.89 322.225L505.496 308.199L505.668 248.092L530.062 262.118Z" fill="#1F1F2B" />
    <path d="M554.271 248.092L530.062 262.118L505.668 248.092L529.89 234.066L554.271 248.092Z" fill="#1969FF"
        stroke="#0A0A31" stroke-width="0.5" stroke-miterlimit="10" />
    <path d="M545.306 299.178L545.134 359.298L520.912 373.324L521.084 313.204L545.306 299.178Z" fill="#3E4A8B" />
    <path d="M545.307 299.178L521.084 313.204L496.703 299.178L520.925 285.165L545.307 299.178Z" fill="#1969FF"
        stroke="#0A0A31" stroke-width="0.5" stroke-miterlimit="10" />
    <path d="M521.085 313.204L520.913 373.324L496.545 359.298L496.704 299.178L521.085 313.204Z" fill="#1F1F2B" />
    <path d="M545.465 327.229L545.293 387.35L520.912 373.324L521.084 313.204L545.465 327.229Z" fill="#1F1F2B" />
    <path d="M569.687 313.204L569.515 373.324L545.293 387.35L545.465 327.229L569.687 313.204Z" fill="#3E4A8B" />
    <path d="M569.687 313.204L545.465 327.229L521.084 313.204L545.306 299.178L569.687 313.204Z" fill="#1969FF"
        stroke="#0A0A31" stroke-width="0.5" stroke-miterlimit="10" />
    <path d="M594.084 327.229L593.912 387.35L569.689 401.362L569.861 341.255L594.084 327.229Z" fill="#3E4A8B" />
    <path d="M569.861 341.255L569.689 401.362L545.295 387.35L545.467 327.229L569.861 341.255Z" fill="#1F1F2B" />
    <path d="M594.083 327.229L569.861 341.255L545.467 327.229L569.689 313.204L594.083 327.229Z" fill="#1969FF"
        stroke="#0A0A31" stroke-width="0.5" stroke-miterlimit="10" />
    <path d="M618.465 341.255L618.293 401.362L594.07 415.388L594.242 355.268L618.465 341.255Z" fill="#1D3B73" />
    <path d="M594.242 355.268L594.07 415.388L569.689 401.362L569.861 341.255L594.242 355.268Z" fill="#1F1F2B" />
    <path d="M618.465 341.255L594.242 355.268L569.861 341.255L594.084 327.229L618.465 341.255Z" fill="#1969FF"
        stroke="#0A0A31" stroke-width="0.5" stroke-miterlimit="10" />
    <path d="M664.026 367.279L663.854 427.399L639.645 441.425L639.816 381.305L664.026 367.279Z" fill="#3E4A8B" />
    <path d="M639.816 381.305L639.644 441.425L615.25 427.399L615.422 367.279L639.816 381.305Z" fill="#1F1F2B" />
    <path d="M664.025 367.279L639.816 381.305L615.422 367.279L639.644 353.253L664.025 367.279Z" fill="#1969FF"
        stroke="#0A0A31" stroke-width="0.5" stroke-miterlimit="10" />
    <path d="M688.406 381.305L688.234 441.425L664.012 455.438L664.184 395.318L688.406 381.305Z" fill="#3E4A8B" />
    <path d="M664.184 395.318L664.012 455.438L639.645 441.425L639.816 381.305L664.184 395.318Z" fill="#1F1F2B" />
    <path d="M688.407 381.305L664.184 395.318L639.816 381.305L664.026 367.279L688.407 381.305Z" fill="#1969FF"
        stroke="#0A0A31" stroke-width="0.5" stroke-miterlimit="10" />
    <path d="M712.802 395.331L712.631 455.451L688.408 469.463L688.58 409.343L712.802 395.331Z" fill="#3E4A8B" />
    <path d="M688.58 409.343L688.408 469.463L664.014 455.438L664.186 395.317L688.58 409.343Z" fill="#1F1F2B" />
    <path d="M712.802 395.331L688.58 409.343L664.186 395.317L688.408 381.305L712.802 395.331Z" fill="#1969FF"
        stroke="#0A0A31" stroke-width="0.5" stroke-miterlimit="10" />
    <path d="M737.183 409.343L737.011 469.463L712.789 483.489L712.961 423.369L737.183 409.343Z" fill="#3E4A8B" />
    <path d="M712.961 423.369L712.789 483.489L688.408 469.463L688.58 409.343L712.961 423.369Z" fill="#1F1F2B" />
    <path d="M737.184 409.343L712.961 423.369L688.58 409.343L712.802 395.331L737.184 409.343Z" fill="#1969FF"
        stroke="#0A0A31" stroke-width="0.5" stroke-miterlimit="10" />
    <path d="M761.564 423.369L761.392 483.489L737.17 497.515L737.342 437.395L761.564 423.369Z" fill="#3E4A8B" />
    <path d="M737.342 437.395L737.17 497.515L712.789 483.489L712.961 423.369L737.342 437.395Z" fill="#1F1F2B" />
    <path d="M761.564 423.369L737.342 437.395L712.961 423.369L737.183 409.343L761.564 423.369Z" fill="#1969FF"
        stroke="#0A0A31" stroke-width="0.5" stroke-miterlimit="10" />
    <path d="M785.945 437.395L785.773 497.515L761.551 511.528L761.723 451.408L785.945 437.395Z" fill="#3E4A8B" />
    <path d="M761.723 451.408L761.551 511.528L737.17 497.515L737.342 437.395L761.723 451.408Z" fill="#1F1F2B" />
    <path d="M785.945 437.395L761.723 451.408L737.342 437.395L761.564 423.369L785.945 437.395Z" fill="#1969FF"
        stroke="#0A0A31" stroke-width="0.5" stroke-miterlimit="10" />
    <path d="M810.34 451.421L810.168 511.541L785.945 525.554L786.117 465.434L810.34 451.421Z" fill="#1D3B73" />
    <path d="M786.117 465.434L785.945 525.554L761.551 511.528L761.723 451.408L786.117 465.434Z" fill="#1F1F2B" />
    <path d="M810.339 451.421L786.117 465.434L761.723 451.408L785.945 437.395L810.339 451.421Z" fill="#1969FF"
        stroke="#0A0A31" stroke-width="0.5" stroke-miterlimit="10" />
    <path d="M786.117 465.434L785.945 525.554L761.723 539.58L761.895 479.459L786.117 465.434Z" fill="#1D3B73" />
    <path d="M761.894 479.459L761.722 539.58L737.328 525.554L737.5 465.434L761.894 479.459Z" fill="#1F1F2B" />
    <path d="M786.117 465.434L761.894 479.459L737.5 465.434L761.722 451.408L786.117 465.434Z" fill="#1969FF"
        stroke="#0A0A31" stroke-width="0.5" stroke-miterlimit="10" />
    <path d="M712.961 423.369L712.789 483.489L688.566 497.502L688.738 437.382L712.961 423.369Z" fill="#1D3B73" />
    <path d="M688.738 437.382L688.567 497.502L664.186 483.489L664.357 423.369L688.738 437.382Z" fill="#1F1F2B" />
    <path d="M712.961 423.369L688.738 437.382L664.357 423.369L688.58 409.343L712.961 423.369Z" fill="#1969FF"
        stroke="#0A0A31" stroke-width="0.5" stroke-miterlimit="10" />
    <path d="M761.894 479.459L761.722 539.58L737.486 553.606L737.658 493.485L761.894 479.459Z" fill="#1D3B73" />
    <path d="M761.894 479.459L737.658 493.485L713.277 479.459L737.5 465.434L761.894 479.459Z" fill="#1969FF"
        stroke="#0A0A31" stroke-width="0.5" stroke-miterlimit="10" />
    <path d="M737.658 493.485L737.487 553.606L713.105 539.58L713.277 479.459L737.658 493.485Z" fill="#1F1F2B" />
    <path d="M713.436 507.498L713.264 567.618L688.883 553.592L689.055 493.472L713.436 507.498Z" fill="#1F1F2B" />
    <path d="M737.658 493.485L737.486 553.606L713.264 567.618L713.436 507.498L737.658 493.485Z" fill="#1D3B73" />
    <path d="M737.658 493.485L713.436 507.498L689.055 493.472L713.277 479.459L737.658 493.485Z" fill="#1969FF"
        stroke="#0A0A31" stroke-width="0.5" stroke-miterlimit="10" />
    <path d="M688.738 437.382L688.566 497.502L664.33 511.528L664.502 451.408L688.738 437.382Z" fill="#1D3B73" />
    <path d="M664.503 451.408L664.331 511.528L639.963 497.515L640.122 437.395L664.503 451.408Z" fill="#1F1F2B" />
    <path d="M688.738 437.382L664.502 451.408L640.121 437.395L664.357 423.369L688.738 437.382Z" fill="#1969FF"
        stroke="#0A0A31" stroke-width="0.5" stroke-miterlimit="10" />
    <path d="M594.242 355.268L594.07 415.388L569.848 429.414L570.02 369.294L594.242 355.268Z" fill="#1D3B73" />
    <path d="M570.02 369.294L569.848 429.414L545.467 415.388L545.639 355.268L570.02 369.294Z" fill="#1F1F2B" />
    <path d="M594.242 355.268L570.02 369.294L545.639 355.268L569.861 341.255L594.242 355.268Z" fill="#1969FF"
        stroke="#0A0A31" stroke-width="0.5" stroke-miterlimit="10" />
    <path d="M639.818 381.305L639.646 441.425L615.424 455.438L615.596 395.318L639.818 381.305Z" fill="#1D3B73" />
    <path d="M615.595 395.318L615.424 455.438L591.029 441.412L591.201 381.292L615.595 395.318Z" fill="#1F1F2B" />
    <path d="M639.818 381.305L615.595 395.318L591.201 381.292L615.424 367.279L639.818 381.305Z" fill="#1969FF"
        stroke="#0A0A31" stroke-width="0.5" stroke-miterlimit="10" />
    <path d="M664.502 451.408L664.33 511.528L640.121 525.554L640.28 465.434L664.502 451.408Z" fill="#1D3B73" />
    <path d="M640.28 465.434L640.121 525.554L615.74 511.528L615.912 451.408L640.28 465.434Z" fill="#1F1F2B" />
    <path d="M664.502 451.408L640.28 465.434L615.912 451.408L640.121 437.395L664.502 451.408Z" fill="#1969FF"
        stroke="#0A0A31" stroke-width="0.5" stroke-miterlimit="10" />
    <path d="M481.445 262.118L481.273 322.225L457.051 336.251L457.223 276.131L481.445 262.118Z" fill="#1D3B73" />
    <path d="M457.223 276.131L457.051 336.251L432.67 322.225L432.842 262.118L457.223 276.131Z" fill="#1F1F2B" />
    <path d="M481.445 262.118L457.223 276.131L432.842 262.118L457.064 248.092L481.445 262.118Z" fill="#1969FF"
        stroke="#0A0A31" stroke-width="0.5" stroke-miterlimit="10" />
    <path d="M457.224 276.131L457.052 336.251L432.83 350.277L433.002 290.156L457.224 276.131Z" fill="#1D3B73" />
    <path d="M433.002 290.156L432.83 350.277L408.449 336.251L408.621 276.131L433.002 290.156Z" fill="#1F1F2B" />
    <path d="M457.225 276.131L433.002 290.156L408.621 276.131L432.843 262.118L457.225 276.131Z" fill="#1969FF"
        stroke="#0A0A31" stroke-width="0.5" stroke-miterlimit="10" />
    <path d="M433.001 290.156L432.829 350.277L408.594 364.303L408.766 304.182L433.001 290.156Z" fill="#1D3B73" />
    <path d="M408.766 304.182L408.594 364.303L384.213 350.277L384.385 290.156L408.766 304.182Z" fill="#1F1F2B" />
    <path d="M433.001 290.156L408.766 304.182L384.385 290.156L408.62 276.131L433.001 290.156Z" fill="#1969FF"
        stroke="#0A0A31" stroke-width="0.5" stroke-miterlimit="10" />
    <path d="M408.765 304.182L408.593 364.303L384.371 378.328L384.543 318.208L408.765 304.182Z" fill="#3E4A8B" />
    <path d="M384.543 318.208L384.371 378.328L359.99 364.303L360.162 304.182L384.543 318.208Z" fill="#1F1F2B" />
    <path d="M408.766 304.182L384.543 318.208L360.162 304.182L384.384 290.156L408.766 304.182Z" fill="#1969FF"
        stroke="#0A0A31" stroke-width="0.5" stroke-miterlimit="10" />
    <path d="M433.159 318.208L432.988 378.315L408.752 392.341L408.924 332.234L433.159 318.208Z" fill="#1D3B73" />
    <path d="M408.924 332.234L408.752 392.341L384.371 378.328L384.543 318.208L408.924 332.234Z" fill="#1F1F2B" />
    <path d="M433.16 318.208L408.924 332.234L384.543 318.208L408.765 304.182L433.16 318.208Z" fill="#1969FF"
        stroke="#0A0A31" stroke-width="0.5" stroke-miterlimit="10" />
    <path d="M521.084 313.204L520.912 373.324L496.703 387.35L496.862 327.229L521.084 313.204Z" fill="#1D3B73" />
    <path d="M496.862 327.229L496.703 387.35L472.322 373.324L472.494 313.204L496.862 327.229Z" fill="#1F1F2B" />
    <path d="M521.084 313.204L496.862 327.229L472.494 313.204L496.703 299.178L521.084 313.204Z" fill="#1969FF"
        stroke="#0A0A31" stroke-width="0.5" stroke-miterlimit="10" />
    <path d="M496.863 327.229L496.704 387.35L472.469 401.362L472.641 341.255L496.863 327.229Z" fill="#1D3B73" />
    <path d="M472.641 341.255L472.469 401.362L448.088 387.35L448.26 327.229L472.641 341.255Z" fill="#1F1F2B" />
    <path d="M496.863 327.229L472.641 341.255L448.26 327.229L472.495 313.204L496.863 327.229Z" fill="#1969FF"
        stroke="#0A0A31" stroke-width="0.5" stroke-miterlimit="10" />
    <path d="M472.64 341.255L472.468 401.362L448.246 415.388L448.418 355.268L472.64 341.255Z" fill="#3E4A8B" />
    <path d="M448.418 355.268L448.246 415.388L423.865 401.376L424.037 341.255L448.418 355.268Z" fill="#1F1F2B" />
    <path d="M472.641 341.255L448.418 355.268L424.037 341.255L448.259 327.229L472.641 341.255Z" fill="#1969FF"
        stroke="#0A0A31" stroke-width="0.5" stroke-miterlimit="10" />
    <path d="M497.021 355.268L496.849 415.388L472.627 429.414L472.799 369.294L497.021 355.268Z" fill="#3E4A8B" />
    <path d="M497.021 355.268L472.799 369.294L448.418 355.268L472.64 341.255L497.021 355.268Z" fill="#1969FF"
        stroke="#0A0A31" stroke-width="0.5" stroke-miterlimit="10" />
    <path d="M472.799 369.294L472.627 429.414L448.246 415.388L448.418 355.268L472.799 369.294Z" fill="#1F1F2B" />
    <path d="M497.18 383.32L497.021 443.44L472.627 429.414L472.799 369.294L497.18 383.32Z" fill="#1F1F2B" />
    <path d="M521.403 369.294L521.231 429.414L497.021 443.44L497.18 383.32L521.403 369.294Z" fill="#3E4A8B" />
    <path d="M521.402 369.294L497.18 383.32L472.799 369.294L497.021 355.268L521.402 369.294Z" fill="#1969FF"
        stroke="#0A0A31" stroke-width="0.5" stroke-miterlimit="10" />
    <path d="M570.019 369.294L569.847 429.414L545.611 443.44L545.783 383.32L570.019 369.294Z" fill="#1D3B73" />
    <path d="M545.783 383.32L545.612 443.44L521.23 429.414L521.402 369.294L545.783 383.32Z" fill="#1F1F2B" />
    <path d="M570.019 369.294L545.783 383.32L521.402 369.294L545.638 355.268L570.019 369.294Z" fill="#1969FF"
        stroke="#0A0A31" stroke-width="0.5" stroke-miterlimit="10" />
    <path d="M615.595 395.317L615.423 455.438L591.188 469.463L591.359 409.343L615.595 395.317Z" fill="#1D3B73" />
    <path d="M591.36 409.343L591.188 469.463L566.807 455.438L566.979 395.317L591.36 409.343Z" fill="#1F1F2B" />
    <path d="M615.595 395.317L591.36 409.343L566.979 395.317L591.201 381.292L615.595 395.317Z" fill="#1969FF"
        stroke="#0A0A31" stroke-width="0.5" stroke-miterlimit="10" />
    <path d="M545.783 383.32L545.611 443.44L521.389 457.453L521.561 397.333L545.783 383.32Z" fill="#1D3B73" />
    <path d="M521.561 397.333L521.389 457.453L497.021 443.44L497.18 383.32L521.561 397.333Z" fill="#1F1F2B" />
    <path d="M545.783 383.32L521.561 397.332L497.18 383.32L521.402 369.294L545.783 383.32Z" fill="#1969FF"
        stroke="#0A0A31" stroke-width="0.5" stroke-miterlimit="10" />
    <path d="M591.359 409.343L591.187 469.463L566.965 483.489L567.137 423.369L591.359 409.343Z" fill="#1D3B73" />
    <path d="M567.137 423.369L566.965 483.489L542.584 469.463L542.756 409.343L567.137 423.369Z" fill="#1F1F2B" />
    <path d="M591.359 409.343L567.137 423.369L542.756 409.343L566.978 395.317L591.359 409.343Z" fill="#1969FF"
        stroke="#0A0A31" stroke-width="0.5" stroke-miterlimit="10" />
</svg>