<svg width="20" height="20" viewBox="0 0 20 20" fill="none" xmlns="http://www.w3.org/2000/svg">
<g id="github_fill 1" clip-path="url(#clip0_435_4926)">
<g id="&#233;&#161;&#181;&#233;&#157;&#162;-1">
<g id="Logo">
<g id="github_fill">
<path id="&#232;&#183;&#175;&#229;&#190;&#132;" d="M5.85255 1.9255C6.36807 2.10082 7.00576 2.38024 7.62343 2.79678C8.37197 2.6038 9.1713 2.50002 9.99964 2.50002C10.8271 2.50002 11.6256 2.6036 12.3736 2.7962C12.9911 2.37986 13.6286 2.10059 14.144 1.92536C14.7247 1.72791 15.5525 1.4073 16.0439 1.95172C16.3776 2.32134 16.4603 2.94167 16.5198 3.41461C16.5863 3.9431 16.6018 4.63199 16.4269 5.315C17.096 6.179 17.4996 7.21039 17.4996 8.33335C17.4996 10.0352 16.5779 11.5124 15.2136 12.5355C14.5857 13.0064 13.8557 13.3894 13.0551 13.6657C13.2338 14.0743 13.333 14.5256 13.333 15V17.5C13.333 17.9603 12.9598 18.3334 12.4996 18.3334H7.49959C7.03936 18.3334 6.66626 17.9603 6.66626 17.5V16.6739C5.87016 16.7714 5.20299 16.6852 4.63505 16.4443C4.04189 16.1926 3.62846 15.8023 3.31773 15.4294C3.02298 15.0757 2.70164 14.2791 2.23605 14.1239C1.79944 13.9784 1.56347 13.5064 1.709 13.0699C1.85454 12.6332 2.32648 12.3973 2.76309 12.5428C3.31791 12.7277 3.67917 13.1279 3.92721 13.4489C4.32643 13.9654 4.65259 14.6413 5.28597 14.9099C5.54644 15.0204 5.9291 15.0938 6.52647 15.0114L6.6663 14.9835C6.66858 14.5151 6.76746 14.0695 6.94406 13.6657C6.14349 13.3894 5.41344 13.0064 4.78555 12.5355C3.42127 11.5124 2.49959 10.0352 2.49959 8.33335C2.49959 7.2117 2.90229 6.1814 3.56995 5.31801C3.39438 4.63447 3.40969 3.94485 3.47615 3.41583C3.47749 3.4052 3.47882 3.39454 3.48016 3.38383C3.54089 2.89926 3.61246 2.32821 3.95211 1.95181C4.44344 1.40735 5.27185 1.72803 5.85255 1.9255Z" fill="white"/>
</g>
</g>
</g>
</g>
<defs>
<clipPath id="clip0_435_4926">
<rect width="20" height="20" fill="white"/>
</clipPath>
</defs>
</svg>
