<svg width="20" height="20" viewBox="0 0 20 20" fill="none" xmlns="http://www.w3.org/2000/svg">
<g id="twitter_fill (3) 1" clip-path="url(#clip0_435_4920)">
<g id="&#233;&#161;&#181;&#233;&#157;&#162;-1">
<g id="Brand">
<g id="twitter_fill">
<path id="&#232;&#183;&#175;&#229;&#190;&#132;" d="M3.82813 4.15318C4.13575 4.11732 4.43789 4.25501 4.61264 4.5107C5.84212 6.30971 7.31885 7.0581 8.95742 7.22836C9.03784 6.52737 9.227 5.83475 9.58259 5.22495C10.1042 4.33024 10.9525 3.67154 12.1643 3.42814C13.8388 3.0918 15.1138 3.69822 15.8537 4.4409L17.3468 4.16176C17.6658 4.10215 17.9903 4.23306 18.1787 4.4973C18.3669 4.76153 18.3848 5.11103 18.2243 5.39304L16.7913 7.91144C16.922 11.5459 15.912 14.0824 13.7586 15.8299C12.6163 16.7568 10.9817 17.2825 9.18742 17.4449C7.37915 17.6084 5.33512 17.4106 3.30319 16.8173C2.9467 16.7132 2.70212 16.3858 2.70344 16.0144C2.70474 15.643 2.95163 15.3174 3.30884 15.2158C4.33069 14.9252 5.10844 14.6739 5.81148 14.2352C4.81276 13.7049 4.07688 13.0118 3.55605 12.2215C2.83216 11.1231 2.56374 9.8986 2.51044 8.79419C2.45716 7.68989 2.61674 6.66709 2.78482 5.9289C2.88049 5.50868 2.99224 5.0865 3.14628 4.68321C3.25815 4.39255 3.52051 4.18905 3.82813 4.15318Z" fill="white"/>
</g>
</g>
</g>
</g>
<defs>
<clipPath id="clip0_435_4920">
<rect width="20" height="20" fill="white"/>
</clipPath>
</defs>
</svg>
